<?xml version="1.0" encoding="UTF-8"?> <svg xmlns="http://www.w3.org/2000/svg" xmlns:xlink="http://www.w3.org/1999/xlink" id="Layer_1" data-name="Layer 1" viewBox="0 0 50 50"><defs><style>.cls-1{fill:url(#linear-gradient);}.cls-2{fill:url(#radial-gradient);}.cls-3{fill:url(#radial-gradient-2);}.cls-4{fill:none;}.cls-5{fill:#2d2d2d;}</style><linearGradient id="linear-gradient" x1="18.21" y1="36.44" x2="38.72" y2="3.31" gradientUnits="userSpaceOnUse"><stop offset="0" stop-color="#98da2f"></stop><stop offset="1" stop-color="#6cbf33"></stop></linearGradient><radialGradient id="radial-gradient" cx="41.86" cy="4.68" r="83.5" gradientUnits="userSpaceOnUse"><stop offset="0" stop-color="#fff"></stop><stop offset="0.26" stop-color="#fcfcfc"></stop><stop offset="0.47" stop-color="#f2f2f2"></stop><stop offset="0.67" stop-color="#e0e0e1"></stop><stop offset="0.85" stop-color="#c9c9c9"></stop><stop offset="1" stop-color="#afafb0"></stop></radialGradient><radialGradient id="radial-gradient-2" cx="9.1" cy="42.58" r="46.68" xlink:href="#radial-gradient"></radialGradient></defs><path class="cls-1" d="M48.68,24.76A23.24,23.24,0,1,1,25.44,1.53,23.24,23.24,0,0,1,48.68,24.76Z"></path><path class="cls-2" d="M45.69,24.76A20.25,20.25,0,1,1,25.44,4.52,20.25,20.25,0,0,1,45.69,24.76Z"></path><path class="cls-3" d="M44.69,24.76A19.25,19.25,0,1,1,25.44,5.52,19.25,19.25,0,0,1,44.69,24.76Z"></path><path class="cls-4" d="M15.8,11.67H38.16V34H15.8Z"></path><path class="cls-5" d="M15.57,26.47c.34,0,.69,0,1,0a.18.18,0,0,1,.21.15c.25.62.5,1.23.77,1.85a.17.17,0,0,1,0,.23l-.84.83a.63.63,0,0,0,0,1L19,32.81a.64.64,0,0,0,1,0c.28-.27.55-.54.82-.82a.2.2,0,0,1,.27,0c.6.26,1.2.51,1.81.75.11.05.16.09.16.22,0,.34,0,.69,0,1a.76.76,0,0,0,.47.81h3.73a.77.77,0,0,0,.46-.84c0-.38,0-.77,0-1.15.4-.15.8-.28,1.19-.44a8,8,0,0,0,.78-.38.17.17,0,0,1,.26,0l.81.81a.62.62,0,0,0,1,0L34,30.51a.64.64,0,0,0,0-1c-.26-.26-.52-.53-.79-.79a.19.19,0,0,1,0-.26c.27-.6.52-1.2.76-1.81a.2.2,0,0,1,.23-.17h1.16a.63.63,0,0,0,.67-.68V22.5a.63.63,0,0,0-.67-.68c-.39,0-.78,0-1.16,0a.2.2,0,0,1-.23-.16c-.24-.61-.49-1.21-.76-1.81a.2.2,0,0,1,0-.27l.81-.8a.64.64,0,0,0,0-1l-2.32-2.31a.62.62,0,0,0-1,0c-.28.27-.55.56-.84.83a.24.24,0,0,1-.2,0c-.33-.15-.64-.32-1-.46s-.68-.24-1-.37c0-.34,0-.7,0-1,0-.72-.22-1-.95-1-1,0-2,0-3,0a.63.63,0,0,0-.71.71c0,.37,0,.75,0,1.12a.21.21,0,0,1-.16.23c-.61.24-1.22.49-1.82.75a.19.19,0,0,1-.26,0c-.26-.28-.53-.54-.81-.81a.63.63,0,0,0-1,0L16.71,17.8a.62.62,0,0,0,0,1l.84.84c.08.07.08.13,0,.23-.27.61-.52,1.23-.77,1.85a.19.19,0,0,1-.21.14c-.34,0-.69,0-1,0a.73.73,0,0,0-.81.46V26A.75.75,0,0,0,15.57,26.47Zm9.81-8.38a6.06,6.06,0,1,1-6.06,6.05A6.07,6.07,0,0,1,25.38,18.09Z"></path><path class="cls-5" d="M25.36,29a4.81,4.81,0,1,0-4.8-4.83A4.81,4.81,0,0,0,25.36,29Zm-3-6.83a.61.61,0,0,1,.57-.3h3.54a2.79,2.79,0,0,1-.2-.24.62.62,0,0,1,.07-.86.61.61,0,0,1,.84,0c.4.42.8.86,1.18,1.3a.57.57,0,0,1,0,.78q-.57.66-1.17,1.29a.6.6,0,0,1-.86,0,.63.63,0,0,1-.06-.84l.2-.24H22.93a.62.62,0,0,1-.59-.32A.56.56,0,0,1,22.35,22.12Zm0,3.35c.38-.45.78-.89,1.19-1.32a.61.61,0,0,1,.85,0,.63.63,0,0,1,.07.83c-.05.07-.12.14-.21.25h3.52a.62.62,0,0,1,.66.77.61.61,0,0,1-.64.47H24.29l.21.25a.62.62,0,0,1-.08.84.61.61,0,0,1-.84,0c-.41-.43-.8-.86-1.19-1.3A.58.58,0,0,1,22.39,25.47Z"></path></svg> 